<?xml version="1.0" encoding="UTF-8"?>
<svg width="468.00000000000006" height="468.00000000000006" xmlns="http://www.w3.org/2000/svg">
 <title>Pink Sakura</title>
 <g>
  <title>Layer 1</title>
  <path transform="translate(182.787 119.672)" fill="#f98298" stroke="#f98298" stroke-width="2.928799" id="path572" d="m110.624657,39.105835c15.566406,-46.69931 -20.609802,-107.767624 -31.132996,-108.965103c-15.566391,15.566437 -15.566391,15.566437 -31.132797,31.132889c-15.566513,-15.566452 -15.566513,-15.566452 -31.133003,-31.132889c-8.519905,6.262421 -46.699409,62.265793 -31.132912,112.047318c-39.603397,-26.15332 -108.861923,-15.441101 -113.252609,-5.803009c9.994308,19.614899 9.994308,19.614899 19.98848,39.229706c-19.614838,9.994385 -19.614838,9.994385 -39.229698,19.988708c3.32312,10.038086 45.91053,62.118866 95.134327,67.971771c-40.042721,34.8573 -47.793636,96.407349 -39.98402,103.56134c21.743217,-3.443787 21.743217,-3.443787 43.486423,-6.887634c3.443909,21.743347 3.443909,21.743347 6.887711,43.486511c10.573704,-0.058472 71.794689,-33.432007 89.23521,-71.667816c17.440475,55.624725 80.017998,76.265594 89.235191,71.048798c3.443787,-21.743164 3.443787,-21.743164 6.887787,-43.486267c21.743073,3.443665 21.743073,3.443665 43.200775,6.280579c2.926224,-10.681396 2.169342,-75.928802 -31.646866,-111.908691c55.450592,-6.975616 89.195969,-49.087189 87.082977,-59.465393c-19.614868,-9.994415 -19.614868,-9.994415 -39.229767,-19.988617c9.994156,-19.61499 9.994156,-19.61499 19.988602,-39.229889c-8.588806,-6.167816 -73.649597,-25.172516 -113.252815,4.062897"/>
 </g>
</svg>